# xmcd
#
# Track frame offsets: 
#        150
#        13215
#        26965
#        42112
#        54942
#        66767
#        80062
#        92577
#        104639
#        115954
#        129987
#        145124
#        159614
#        172146
#        186861
#        200103
#        212336
#        226126
#        239671
#        254324
#        268359
#        280709
#        292664
#        306128
#
# Disc length: 4284 seconds
#
# Revision: 0
# Processed by: cddbd v1.5.2PL0 Copyright (c) Steve Scherf et al.
# Submitted via: ExactAudioCopyFreeDBPlugin 1.0
#
DISCID=6310ba18
DTITLE=Muddy Waters - McKinley Morganfield
DYEAR=2014
DGENRE=Blues
TTITLE0=Louisiana Blues
TTITLE1=I'm Ready
TTITLE2=Honey Bee
TTITLE3=I Just Want To Make Love To You
TTITLE4=Kind-Hearted Woman
TTITLE5=She Moves Me
TTITLE6=(I'm Your) Hoochie Coochie Man
TTITLE7=Long Distance Call
TTITLE8=She's All Right
TTITLE9=Rollin' Stone
TTITLE10=Standing Around Crying
TTITLE11=Too Young Too Know
TTITLE12=Walking Thru The Park
TTITLE13=Still A Fool
TTITLE14=You Can't Loose What You Ain't Never Had
TTITLE15=I Can't Be Satisfied
TTITLE16=I Want You To Love Me
TTITLE17=Rolling And Tumbling
TTITLE18=Just To Be WIth You
TTITLE19=You're Gonna Need My Help
TTITLE20=Same Thing
TTITLE21=My Life Is Ruined
TTITLE22=Baby, Please Don't Go
TTITLE23=Got My Mojo Working (Part I)
EXTD=
EXTT0=
EXTT1=
EXTT2=
EXTT3=
EXTT4=
EXTT5=
EXTT6=
EXTT7=
EXTT8=
EXTT9=
EXTT10=
EXTT11=
EXTT12=
EXTT13=
EXTT14=
EXTT15=
EXTT16=
EXTT17=
EXTT18=
EXTT19=
EXTT20=
EXTT21=
EXTT22=
EXTT23=
PLAYORDER=
